<svg width="25.000000" height="25.000000" viewBox="0 0 25 25" fill="none" xmlns="http://www.w3.org/2000/svg" xmlns:xlink="http://www.w3.org/1999/xlink">
	<desc>
			Created with Pixso.
	</desc>
	<defs>
		<clipPath id="clip322_189">
			<rect id="jam:shopping-cart" rx="0.000000" width="24.000000" height="24.000000" transform="matrix(-1 0 0 1 25.5 0.5)" fill="white" fill-opacity="0"/>
		</clipPath>
	</defs>
	<rect id="jam:shopping-cart" rx="0.000000" width="24.000000" height="24.000000" transform="matrix(-1 0 0 1 25.5 0.5)" fill="#FFFFFF" fill-opacity="0"/>
	<g clip-path="url(#clip322_189)">
		<path id="Vector" d="M15 21C15.56 21 15.6 20.39 16 20C16.39 19.6 17 19.56 17 19C17 18.43 16.39 17.39 16 17C15.6 16.6 15.56 17 15 17C14.43 17 13.39 16.6 13 17C12.6 17.39 13 18.43 13 19C13 19.56 12.6 19.6 13 20C13.39 20.39 14.43 21 15 21ZM7 21C7.56 21 8.6 20.39 9 20C9.39 19.6 9 19.56 9 19C9 18.43 9.39 17.39 9 17C8.6 16.6 7.56 17 7 17C6.43 17 6.39 16.6 6 17C5.6 17.39 5 18.43 5 19C5 19.56 5.6 19.6 6 20C6.39 20.39 6.43 21 7 21ZM21 6C21.26 5.99 21.81 6.19 22 6C22.18 5.8 22 5.26 22 5C22 4.73 22.18 4.19 22 4C21.81 3.8 21.26 4 21 4L20 4C19.04 4 18.2 5.06 18 6L16 12C15.79 12.93 15.95 13 15 13L7 13L5 7L15 7C15.26 6.98 15.81 7.19 16 7C16.18 6.8 16 6.26 16 6C16 5.73 16.18 5.19 16 5C15.81 4.8 15.26 5.01 15 5L5 5C4.69 4.99 4.27 4.86 4 5C3.72 5.13 3.18 5.75 3 6C2.8 6.24 3.06 6.69 3 7C2.93 7.3 2.92 7.69 3 8L5 14C5.1 14.44 4.64 14.71 5 15C5.35 15.28 6.54 15 7 15L15 15C15.92 15 16.27 14.58 17 14C17.72 13.41 17.79 12.9 18 12L20 6L21 6Z" fill="#FFFFFF" fill-opacity="1.000000" fill-rule="nonzero"/>
	</g>
</svg>
