<svg width="19.000000" height="19.000000" viewBox="0 0 19 19" fill="none" xmlns="http://www.w3.org/2000/svg" xmlns:xlink="http://www.w3.org/1999/xlink">
	<desc>
			Created with Pixso.
	</desc>
	<defs>
		<clipPath id="clip322_175">
			<rect id="gg:search" rx="0.000000" width="18.000000" height="18.000000" transform="translate(0.500000 0.500000)" fill="white" fill-opacity="0"/>
		</clipPath>
	</defs>
	<rect id="gg:search" rx="0.000000" width="18.000000" height="18.000000" transform="translate(0.500000 0.500000)" fill="#FFFFFF" fill-opacity="0"/>
	<g clip-path="url(#clip322_175)">
		<path id="Vector" d="M14 11C14.98 9.72 16.15 8.6 16 7C15.84 5.39 15.21 4.06 14 3C12.78 1.93 10.61 0.95 9 1C7.38 1.04 6.14 1.85 5 3C3.85 4.14 3.05 5.38 3 7C2.94 8.61 3.93 10.78 5 12C6.06 13.21 7.39 13.84 9 14C10.6 14.15 11.72 12.99 13 12L17 16C17.1 16 17.9 16.03 18 16C18.04 15.9 18 15.1 18 15L14 11ZM13 4C13.44 4.44 13.75 5.42 14 6C14.24 6.57 13.99 6.37 14 7C14 7.62 14.23 8.41 14 9C13.76 9.58 13.44 10.55 13 11C12.55 11.44 11.58 11.76 11 12C10.41 12.23 9.62 12 9 12C8.37 11.99 8.57 12.24 8 12C7.42 11.75 6.44 11.44 6 11C5.11 10.1 4.99 8.25 5 7C5 5.74 5.11 4.88 6 4C6.88 3.11 7.74 3 9 3C10.25 2.99 12.1 3.11 13 4Z" fill="#FFFFFF" fill-opacity="1.000000" fill-rule="evenodd"/>
		<path id="Vector" d="M16.21 7.26Q16.21 7.12 16.19 6.98Q16.08 5.72 15.57 4.7Q15.54 4.64 15.51 4.58Q15 3.61 14.13 2.85Q13.66 2.43 13.03 2.05Q12.41 1.68 11.72 1.39Q11.01 1.09 10.33 0.94Q9.6 0.78 8.99 0.8Q8.57 0.81 8.16 0.89Q7.42 1.04 6.72 1.41Q5.81 1.9 4.85 2.85Q3.9 3.81 3.41 4.72Q3.05 5.4 2.9 6.12Q2.81 6.55 2.8 6.99Q2.78 7.6 2.94 8.33Q3.09 9.01 3.39 9.72Q3.68 10.41 4.05 11.03Q4.43 11.66 4.85 12.13Q5.62 13.01 6.59 13.51Q6.65 13.54 6.7 13.57Q7.72 14.08 8.98 14.19Q9.12 14.21 9.27 14.21Q10.1 14.21 10.93 13.76Q11.31 13.56 11.77 13.23Q12.04 13.03 12.57 12.6Q12.81 12.39 12.98 12.26L16.91 16.2L17 16.2Q17.02 16.2 17.15 16.2Q17.48 16.21 17.64 16.21Q17.99 16.22 18.07 16.18L18.15 16.15L18.18 16.07Q18.22 15.99 18.21 15.64Q18.21 15.47 18.2 15.15Q18.2 15.01 18.2 15L18.2 14.91L14.26 10.98Q14.4 10.81 14.6 10.55Q15.03 10.03 15.23 9.76Q15.56 9.31 15.77 8.92Q16.21 8.09 16.21 7.26ZM14 11C14.14 10.8 14.3 10.62 14.45 10.43C15.3 9.37 16.12 8.36 16 7C15.84 5.39 15.21 4.06 14 3C12.78 1.93 10.61 0.95 9 1C7.38 1.04 6.14 1.85 5 3C3.85 4.14 3.05 5.38 3 7C2.94 8.61 3.93 10.78 5 12C6.06 13.21 7.39 13.84 9 14C10.37 14.12 11.38 13.3 12.44 12.44C12.62 12.29 12.81 12.14 13 12L17 16C17.02 16 17.08 16 17.15 16L17.15 16C17.42 16.01 17.92 16.03 18 16C18.03 15.92 18.01 15.42 18 15.15L18 15.15C18 15.08 18 15.02 18 15L14 11ZM13 4C13.44 4.44 13.75 5.42 14 6C14.14 6.33 14.11 6.4 14.07 6.53C14.04 6.62 13.99 6.73 14 7C14 7.2 14.02 7.42 14.05 7.64C14.1 8.11 14.16 8.6 14 9C13.76 9.58 13.44 10.55 13 11C12.55 11.44 11.58 11.76 11 12C10.6 12.16 10.11 12.1 9.64 12.05C9.42 12.02 9.2 12 9 12C8.73 11.99 8.62 12.04 8.53 12.07C8.4 12.11 8.33 12.14 8 12C7.42 11.75 6.44 11.44 6 11C5.11 10.1 4.99 8.25 5 7C5 5.74 5.11 4.88 6 4C6.88 3.11 7.74 3 9 3C10.25 2.99 12.1 3.11 13 4ZM13.65 5.66Q13.76 5.95 13.81 6.07Q13.9 6.27 13.9 6.36Q13.9 6.39 13.88 6.46Q13.84 6.57 13.82 6.66Q13.79 6.8 13.79 7Q13.8 7.21 13.85 7.66Q13.9 8.13 13.9 8.35Q13.9 8.69 13.81 8.92Q13.77 9.03 13.67 9.28Q13.44 9.87 13.3 10.16Q13.07 10.64 12.85 10.85Q12.64 11.07 12.16 11.3Q11.88 11.44 11.28 11.67Q11.03 11.76 10.92 11.81Q10.69 11.9 10.35 11.9Q10.13 11.9 9.66 11.85Q9.21 11.8 9 11.8Q8.8 11.79 8.66 11.82Q8.57 11.84 8.46 11.88Q8.39 11.9 8.36 11.9Q8.27 11.9 8.07 11.81Q7.95 11.76 7.66 11.65Q7.08 11.42 6.8 11.29Q6.34 11.06 6.14 10.85Q5.18 9.88 5.2 7Q5.2 6.48 5.23 6.14Q5.27 5.73 5.36 5.41Q5.45 5.1 5.6 4.83Q5.62 4.79 5.64 4.76Q5.83 4.44 6.14 4.14Q6.44 3.83 6.76 3.64Q6.79 3.62 6.82 3.6Q7.1 3.45 7.41 3.36Q7.73 3.26 8.14 3.23Q8.48 3.2 9 3.19Q11.89 3.18 12.85 4.14Q13.06 4.34 13.29 4.8Q13.42 5.08 13.65 5.66Z" fill="#FFFFFF" fill-opacity="1.000000" fill-rule="evenodd"/>
	</g>
</svg>
